<svg xmlns="http://www.w3.org/2000/svg" viewBox="0 0 706.92 218.3"><defs><style>.cls-1{fill:#fff;}.cls-1,.cls-2{stroke:#000;stroke-miterlimit:10;stroke-width:3px;}.cls-2{fill:#fd800a;}</style></defs><title>logoAsset 5</title><g id="Layer_2" data-name="Layer 2"><g id="Layer_1-2" data-name="Layer 1"><g id="Layer_2-2" data-name="Layer 2"><path class="cls-1" d="M42.32,3.66q.46.18.92.39a2.27,2.27,0,0,1,1.22,1c.37.81-4.12,4.85-4.71,6.08a19.56,19.56,0,0,0-1.54,8.52c.1,28.3.13,56.6.34,84.9.13,16.61.54,33.23.86,49.84.14,7.64.85,8.32,8.45,8.3l67.64-.15a30.24,30.24,0,0,0,12.12-2.34c3.43-1.48,4.81-.65,4.84,3.15.08,12.55,0,25.1,0,37.65a9,9,0,0,1-.17,1.42c-.51,3.12-1.26,3.63-4.37,2.78s-6.46-1.75-9.76-2.37a55.16,55.16,0,0,0-10.25-.87q-50.49,0-101,0c-2.22,0-4.27-.12-5.41-2.42v-1A4.86,4.86,0,0,0,1.74,196q0-25.1,0-50.2c0-28.74-.25-57.77-.25-86.62q0-26.52,0-53C1.5-1,37.28,1.69,42.32,3.66Z"/><path class="cls-1" d="M396.25,116.12q-.08-9.23-.13-18.46-.14-33.57-.32-67.15c0-3.88-.55-7.6-3-10.85-1.5-2-.46-3.47,2.38-3.49,6.32-.06,12.63.05,18.95,0,3.09,0,5.88.15,7.42,3.47.58,1.24,1.92,1.23,2.88.4,5-4.33,10.94-4.17,17-3.91,3.42.15,6.87,0,10.3-.18C462,15.46,467.6,20.3,468.3,30.67c.35,5.26.58,10.53.58,15.8q0,43.16-.08,86.33a20.4,20.4,0,0,1-.58,4.74c-1,4.19-3.53,7.1-8,7.39-8.12.54-16.27,1.08-24.34-.6-1.55-.32-3-1-4.56-1.41-2.38-.65-3.35,0-3.49,2.43-.19,3.35-.23,6.71-.27,10.06-.17,13.66-.29,27.33-.51,41a32.69,32.69,0,0,0,1.19,10.42c.64,2,0,2.36-1.88,2.45-6.32.32-12.62-.2-18.93-.21a38.21,38.21,0,0,1-7.17-.31,3.85,3.85,0,0,1-3.46-3.68,32.84,32.84,0,0,1-.2-3.59q0-18.11,0-36.22C396.6,148.88,396.4,132.5,396.25,116.12Z"/><path class="cls-1" d="M55.87,81q.11-24.58.39-49.15c.12-10,5.47-14.94,15.54-15.09,4.87-.08,9.74,0,14.61-.1a24.42,24.42,0,0,1,10.06,1.76,8.42,8.42,0,0,0,8.23-.61A7.63,7.63,0,0,1,109,16.67c6.39.09,12.79,0,19.18.12,3.14,0,3.81.86,2.79,3.81-2.52,7.3-1.83,14.86-1.9,22.34-.17,18-.14,36-.2,54q-.07,22.91-.16,45.82c0,4.88-1.33,6.09-6.12,6-7.2-.09-14.39-.05-21.59-.09-3.61,0-4.4-.55-5.41-4-.31-1.08-.76-.71-1.35-.54-8.29,2.48-16.74,2-25.21,1.48-1.27-.08-2.55-.22-3.82-.27-4.25-.18-6.05-1.43-7.5-5.38a32,32,0,0,1-2-11.24Q55.79,104.83,55.87,81Z"/><path class="cls-1" d="M311.31,80.53q.06-13.55.12-27.1c0-8-.24-16,.43-24,.7-8.34,6-13.16,14.3-13.35,6.22-.14,12.44-.32,18.67,0A25.34,25.34,0,0,1,352.46,18a8.15,8.15,0,0,0,7.55-.7,9.08,9.08,0,0,1,4.56-1.15c6.4-.34,12.78.06,19.17.13,3.09,0,3.72.84,2.76,3.86a46.89,46.89,0,0,0-1.89,14.18q-.1,46.53-.24,93.06c0,5,0,9.91,0,14.86,0,4.67-1.55,6-6.28,6-7-.09-14.07,0-21.11-.06-3.89,0-4.45-.4-5.76-4.14-.31-.88-.8-.64-1.27-.5-9.89,3-20,1.7-30,1.28-3.3-.14-5.31-1.9-6.46-4.83a30.37,30.37,0,0,1-2.29-11.19Q311.16,104.63,311.31,80.53Z"/><path class="cls-1" d="M478.91,81c0-16.07-.14-32.14.06-48.21.09-7.68,2.72-14.27,10.28-17.79a21.28,21.28,0,0,1,9.11-1.69c10.79,0,21.58,0,32.37,0a29.66,29.66,0,0,1,5.47.57c4.25.82,6.87,3.82,6.91,8,.15,14.38.33,28.77-.09,43.15-.13,4.42-2,7.76-5,10.72-8.3,8.2-16.62,16.38-24.87,24.63-3.31,3.31-5.24,7.34-4.61,12.11.88,6.74,4.55,8.25,11.06,8,6.82-.22,12.16-3.41,16.37-8.67,1.84-2.31,3.83-4.51,5.6-6.86,1.26-1.66,1.67-.84,2.29.45a5.87,5.87,0,0,1,.42,2.8q-.23,13.06-.48,26.12c-.14,7.29-4,11.68-11.3,12.38-12,1.15-24.09.92-36.15.81-1.6,0-3.19-.08-4.79-.09a11.53,11.53,0,0,1-11.69-10.14,85.32,85.32,0,0,1-1-13.84q0-21.23,0-42.45Z"/><path class="cls-1" d="M640.15,81.16c0-16.39-.2-32.78.07-49.17.19-11.8,7.4-18.55,19.22-18.63,10.79-.07,21.58,0,32.38,0a31.07,31.07,0,0,1,5.47.55c4.29.79,7,3.51,7,7.86.17,14.78.43,29.57-.17,44.35-.18,4.27-2.55,7.28-5.38,10.07-8.07,8-16.2,15.89-24.21,23.93-3.52,3.53-5.63,7.76-4.8,12.95.86,5.42,4.43,7.84,10.87,7.52a21.28,21.28,0,0,0,16-8.06c2.09-2.52,4.21-5,6.23-7.59,1.14-1.46,1.64-.92,2.16.42a4.67,4.67,0,0,1,.47,1.82c-.19,9.66-.19,19.33-.59,29-.25,5.93-4.49,9.74-11,10.6-6.11.81-12.27.69-18.41.81-7.75.15-15.5,0-23.25-.12a11.47,11.47,0,0,1-11-9.53,76,76,0,0,1-1.06-12.88c0-14.63,0-29.26,0-43.89Z"/><path class="cls-1" d="M140.3,81.06q-.12-23.14,0-46.29a44.56,44.56,0,0,1,.51-6.68C141.89,21,145.1,18,152.63,17.23c11.06-1.17,22.17-1,33.26-.67,3.66.11,7.34-.12,11,.56,7.1,1.32,11.72,6.78,12,14,.34,7.91-.18,15.82,0,23.73a9.91,9.91,0,0,0,1.24,5c1.46,2.52,1.08,4.17-1.42,5.65-6.44,3.83-12.91,7.61-19.46,11.26-3.38,1.88-4.9.91-4.88-3,0-5.27.28-10.54.36-15.8a29.13,29.13,0,0,0-.85-7.6c-.88-3.45-3.39-5.25-6.64-4.88s-4.95,2.43-5,6.2q-.11,32.37-.16,64.75c0,5.71,2.62,8.78,8.36,9.39,9.06,1,15.73-1.61,19.53-9.92a23.52,23.52,0,0,1,3.41-5.47,2.59,2.59,0,0,1,2.75-1.07,2.05,2.05,0,0,1,1.25,2.14c-.21,9.24.59,18.56-1.91,27.64-.3,1.07-.67,2.12-1,3.19-1.37,4.52-4.57,6.75-9.1,7.28a201.37,201.37,0,0,1-20.81.9c-3,0-5.86.65-8.79,1-14.55,1.54-24.56-7.4-24.89-22.29Q140.39,105.13,140.3,81.06Z"/><path class="cls-1" d="M630.89,113.12q.17,14.55.2,29.1,0,15.8.06,31.6c.07,10.94.54,21.87.74,32.81,0,2.56,1.81,4.18,2.87,6.19,1.59,3,1.09,4-2.34,4q-13.31-.07-26.62-.24c-4.72-.06-6.93-2.29-7-7.19-.07-6.72,0-13.44,0-20.15,0-12.24.05-24.47,0-36.71q-.18-33.09-.47-66.19-.19-23.5-.48-47c-.06-5-.18-10.06-.33-15.09a9.31,9.31,0,0,0-3.86-7.86c-.58-.41-1.28-.71-.95-1.67s1.05-.8,1.75-.94c3.89-.78,7.81-.4,11.72-.41,5.59,0,11.19.12,16.78.22,5.08.09,6.54,1.33,6.69,6.3.24,8.15.29,16.3.34,24.45C630.13,67.26,630.61,90.19,630.89,113.12Z"/><path class="cls-1" d="M587.53,112.91q.28,26.33.38,52.59,0,5.11,0,10.23c.06,10.22.58,20.44.71,30.66,0,2.86,2,4.62,3.1,6.86,1.21,2.43.69,3.56-2.08,3.55-9.19,0-18.38-.08-27.57-.24-4.23-.07-6.45-2.5-6.49-6.93-.06-6.56,0-13.12,0-19.67q-.07-26.51-.17-53-.11-23-.31-46-.21-25.3-.48-50.6c-.06-5.11-.21-10.22-.32-15.33-.08-3.51-1-6.63-4.09-8.71-.55-.37-1.05-.71-.76-1.53s.84-.81,1.5-.94c4-.77,8.13-.42,12.2-.43,5.51,0,11,.12,16.54.22,5.2.09,6.7,1.56,6.75,6.77C586.75,51.08,587.2,82,587.53,112.91Z"/><path class="cls-1" d="M299.86,105.46c.26,12.62.63,25.23,1,37.85.11,3.57-.89,4.4-5.22,4.39-5.94,0-11.88.06-17.81-.37-6.49-.47-9.19-2.72-9.34-8.08-.4-15.18-.74-30.37-.59-45.56,0-4.32,0-8.64,0-13a6.38,6.38,0,0,0-1.15-3.9,4.06,4.06,0,0,0-6.75-.13,7.53,7.53,0,0,0-1.48,4.8q-.07,27.71-.2,55.42c0,2.07-.28,4.14-.43,6.22-.16,2.22-1.57,3.67-4.24,3.89-8.71.71-17.36,2-26.15,2.1-3.44,0-4.45-1-3.58-3.74,1-3.24,2.42-6.39,3.45-9.62,1.8-5.62,1.61-11.36,1.58-17.13-.14-27.5-.08-55-.05-82.51,0-6.57-2.25-12.11-9.75-15.49-1.33-.6-2.56-1.8-2.06-2.83.58-1.19,2.31-1.87,4.14-1.83l22.47.55c2.63.07,5.25.18,7.88.25,5.73.17,6.93,1.16,6.94,5.94,0,9.11,0,18.23,0,27.34,0,6.22.69,6.77,8.25,6,6.39-.68,12.75-1.4,19.13,0a25.92,25.92,0,0,1,9.67,4.28,8.53,8.53,0,0,1,3.82,7.23C299.44,80.21,299.6,92.84,299.86,105.46Z"/><path class="cls-2" d="M428.52,80.52c0-10.48,0-21,0-31.43,0-3.4,1-4.82,3.66-5.3a3.71,3.71,0,0,1,4.57,2.8c.72,2.27.44,4.61.44,6.91q.06,17.79,0,35.58,0,8.89,0,17.79c0,3.73.13,8.62-3.6,10.75a2.84,2.84,0,0,1-1.29.43,2.5,2.5,0,0,1-2-1.1c-2.41-3.26-1.81-7.91-1.84-11.69q0-7.57-.07-15.14c0-3.2,0-6.4,0-9.59Z"/><path class="cls-2" d="M87.32,82c0-10.4.08-20.79,0-31.19,0-3.16,1.92-4.75,4.06-6.25,1.41-1,2.76-.33,3.67,1.07a5.77,5.77,0,0,1,.65,3.24q.15,31.65.31,63.3a20.84,20.84,0,0,1-.22,3.1c-.41,2.81-1.7,4-4.2,3.9s-3.93-1.53-4.16-4.3c-.07-.8-.05-1.6-.05-2.4Q87.32,97.21,87.32,82Z"/><path class="cls-2" d="M351.34,81c0,10.86,0,21.72,0,32.58,0,3.69-1.74,5.26-4.92,4.86a3.49,3.49,0,0,1-3.23-2.76,17.79,17.79,0,0,1-.45-4q0-30.79,0-61.57c0-2.17,2.29-5.56,4.31-6.33a2.67,2.67,0,0,1,3.7,1.63,9.37,9.37,0,0,1,.55,4q0,15.81,0,31.62Z"/><path class="cls-2" d="M509.37,54.83c0-3.19,0-6.38,0-9.58a3.33,3.33,0,0,1,2.41-3.47c1.74-.54,2.91.49,3.87,1.74,1.61,2.11,2.42,4.65,3.55,7a2.08,2.08,0,0,1-.26,1.82c-1.72,4-3.44,8.05-5.18,12.07-.49,1.13-1.18,2.38-2.55,2.07s-1.83-1.67-1.83-3c0-2.87,0-5.75,0-8.62Z"/><path class="cls-2" d="M669.84,54.83c0-3.19,0-6.38,0-9.58a3.33,3.33,0,0,1,2.41-3.47c1.74-.54,2.91.49,3.87,1.74,1.61,2.11,2.42,4.65,3.55,7a2.08,2.08,0,0,1-.26,1.82c-1.72,4-3.44,8.05-5.18,12.07-.49,1.13-1.18,2.38-2.55,2.07s-1.83-1.67-1.83-3c0-2.87,0-5.75,0-8.62Z"/></g></g></g></svg>